<svg width="150" height="30" viewBox="0 0 150 30" fill="none" xmlns="http://www.w3.org/2000/svg">
<path d="M11 0.919999C13.96 0.919999 16.5467 1.50667 18.76 2.68C20.9733 3.85333 22.68 5.50667 23.88 7.64C25.1067 9.74667 25.72 12.1867 25.72 14.96C25.72 17.7067 25.1067 20.1467 23.88 22.28C22.68 24.4133 20.96 26.0667 18.72 27.24C16.5067 28.4133 13.9333 29 11 29H0.48V0.919999H11ZM10.56 23.08C13.1467 23.08 15.16 22.3733 16.6 20.96C18.04 19.5467 18.76 17.5467 18.76 14.96C18.76 12.3733 18.04 10.36 16.6 8.92C15.16 7.48 13.1467 6.76 10.56 6.76H7.32V23.08H10.56ZM42.8225 29.28C40.1825 29.28 37.7558 28.6667 35.5425 27.44C33.3558 26.2133 31.6092 24.5067 30.3025 22.32C29.0225 20.1067 28.3825 17.6267 28.3825 14.88C28.3825 12.1333 29.0225 9.66667 30.3025 7.48C31.6092 5.29333 33.3558 3.58667 35.5425 2.36C37.7558 1.13333 40.1825 0.52 42.8225 0.52C45.4625 0.52 47.8758 1.13333 50.0625 2.36C52.2758 3.58667 54.0092 5.29333 55.2625 7.48C56.5425 9.66667 57.1825 12.1333 57.1825 14.88C57.1825 17.6267 56.5425 20.1067 55.2625 22.32C53.9825 24.5067 52.2492 26.2133 50.0625 27.44C47.8758 28.6667 45.4625 29.28 42.8225 29.28ZM42.8225 23.04C45.0625 23.04 46.8492 22.2933 48.1825 20.8C49.5425 19.3067 50.2225 17.3333 50.2225 14.88C50.2225 12.4 49.5425 10.4267 48.1825 8.96C46.8492 7.46666 45.0625 6.72 42.8225 6.72C40.5558 6.72 38.7425 7.45333 37.3825 8.92C36.0492 10.3867 35.3825 12.3733 35.3825 14.88C35.3825 17.36 36.0492 19.3467 37.3825 20.84C38.7425 22.3067 40.5558 23.04 42.8225 23.04ZM79.6278 9.8C79.1211 8.86667 78.3878 8.16 77.4278 7.68C76.4945 7.17333 75.3878 6.92 74.1078 6.92C71.8945 6.92 70.1211 7.65333 68.7878 9.12C67.4545 10.56 66.7878 12.4933 66.7878 14.92C66.7878 17.5067 67.4811 19.5333 68.8678 21C70.2811 22.44 72.2145 23.16 74.6678 23.16C76.3478 23.16 77.7611 22.7333 78.9078 21.88C80.0811 21.0267 80.9345 19.8 81.4678 18.2H72.7878V13.16H87.6678V19.52C87.1611 21.2267 86.2945 22.8133 85.0678 24.28C83.8678 25.7467 82.3345 26.9333 80.4678 27.84C78.6011 28.7467 76.4945 29.2 74.1478 29.2C71.3745 29.2 68.8945 28.6 66.7078 27.4C64.5478 26.1733 62.8545 24.48 61.6278 22.32C60.4278 20.16 59.8278 17.6933 59.8278 14.92C59.8278 12.1467 60.4278 9.68 61.6278 7.52C62.8545 5.33333 64.5478 3.64 66.7078 2.44C68.8678 1.21333 71.3345 0.599998 74.1078 0.599998C77.4678 0.599998 80.2945 1.41333 82.5878 3.04C84.9078 4.66667 86.4411 6.92 87.1878 9.8H79.6278ZM110.097 9.8C109.59 8.86667 108.857 8.16 107.897 7.68C106.963 7.17333 105.857 6.92 104.577 6.92C102.363 6.92 100.59 7.65333 99.2566 9.12C97.9232 10.56 97.2566 12.4933 97.2566 14.92C97.2566 17.5067 97.9499 19.5333 99.3366 21C100.75 22.44 102.683 23.16 105.137 23.16C106.817 23.16 108.23 22.7333 109.377 21.88C110.55 21.0267 111.403 19.8 111.937 18.2H103.257V13.16H118.137V19.52C117.63 21.2267 116.763 22.8133 115.537 24.28C114.337 25.7467 112.803 26.9333 110.937 27.84C109.07 28.7467 106.963 29.2 104.617 29.2C101.843 29.2 99.3632 28.6 97.1766 27.4C95.0166 26.1733 93.3232 24.48 92.0966 22.32C90.8966 20.16 90.2966 17.6933 90.2966 14.92C90.2966 12.1467 90.8966 9.68 92.0966 7.52C93.3232 5.33333 95.0166 3.64 97.1766 2.44C99.3366 1.21333 101.803 0.599998 104.577 0.599998C107.937 0.599998 110.763 1.41333 113.057 3.04C115.377 4.66667 116.91 6.92 117.657 9.8H110.097ZM135.205 29.28C132.565 29.28 130.139 28.6667 127.925 27.44C125.739 26.2133 123.992 24.5067 122.685 22.32C121.405 20.1067 120.765 17.6267 120.765 14.88C120.765 12.1333 121.405 9.66667 122.685 7.48C123.992 5.29333 125.739 3.58667 127.925 2.36C130.139 1.13333 132.565 0.52 135.205 0.52C137.845 0.52 140.259 1.13333 142.445 2.36C144.659 3.58667 146.392 5.29333 147.645 7.48C148.925 9.66667 149.565 12.1333 149.565 14.88C149.565 17.6267 148.925 20.1067 147.645 22.32C146.365 24.5067 144.632 26.2133 142.445 27.44C140.259 28.6667 137.845 29.28 135.205 29.28ZM135.205 23.04C137.445 23.04 139.232 22.2933 140.565 20.8C141.925 19.3067 142.605 17.3333 142.605 14.88C142.605 12.4 141.925 10.4267 140.565 8.96C139.232 7.46666 137.445 6.72 135.205 6.72C132.939 6.72 131.125 7.45333 129.765 8.92C128.432 10.3867 127.765 12.3733 127.765 14.88C127.765 17.36 128.432 19.3467 129.765 20.84C131.125 22.3067 132.939 23.04 135.205 23.04Z" fill="#AD5504"/>
</svg>
